<?xml version="1.0" encoding="UTF-8"?>
<svg width="800" height="600" xmlns="http://www.w3.org/2000/svg" viewBox="0 0 800 600">
  <defs>
    <linearGradient id="skyGradient" x1="0%" y1="0%" x2="0%" y2="100%">
      <stop offset="0%" style="stop-color:#FFE5B4;stop-opacity:0.3"/>
      <stop offset="100%" style="stop-color:#FFF8DC;stop-opacity:0.1"/>
    </linearGradient>
    <radialGradient id="auraGradient" cx="50%" cy="40%" r="60%">
      <stop offset="0%" style="stop-color:#FFD700;stop-opacity:0.3"/>
      <stop offset="70%" style="stop-color:#FF6B35;stop-opacity:0.1"/>
      <stop offset="100%" style="stop-color:#FF6B35;stop-opacity:0"/>
    </radialGradient>
    <linearGradient id="templeGradient" x1="0%" y1="0%" x2="0%" y2="100%">
      <stop offset="0%" style="stop-color:#8B4513;stop-opacity:0.8"/>
      <stop offset="100%" style="stop-color:#A0522D;stop-opacity:0.6"/>
    </linearGradient>
  </defs>
  
  <!-- Sky Background -->
  <rect width="800" height="600" fill="url(#skyGradient)"/>
  
  <!-- Divine Aura -->
  <ellipse cx="400" cy="250" rx="350" ry="200" fill="url(#auraGradient)"/>
  
  <!-- Temple Silhouette in Background -->
  <g opacity="0.2">
    <!-- Temple Base -->
    <rect x="150" y="450" width="500" height="100" fill="url(#templeGradient)"/>
    <!-- Temple Gopuram (Tower) -->
    <polygon points="300,450 350,350 450,350 500,450" fill="url(#templeGradient)"/>
    <!-- Temple Steps -->
    <rect x="100" y="520" width="600" height="20" fill="#8B4513" opacity="0.4"/>
    <rect x="120" y="540" width="560" height="15" fill="#8B4513" opacity="0.3"/>
    <rect x="140" y="555" width="520" height="10" fill="#8B4513" opacity="0.2"/>
  </g>
  
  <!-- Sacred Symbols -->
  <g opacity="0.4">
    <!-- Om Symbol (Stylized) -->
    <circle cx="150" cy="150" r="3" fill="#FFD700"/>
    <path d="M145 145 Q150 140 155 145 Q155 150 150 155 Q145 150 145 145" fill="#FFD700"/>
    <circle cx="153" cy="148" r="1.5" fill="#FFD700"/>
    
    <!-- Lotus Petals -->
    <g transform="translate(650,400)">
      <ellipse cx="0" cy="0" rx="15" ry="5" fill="#FFB6C1" opacity="0.6"/>
      <ellipse cx="0" cy="0" rx="15" ry="5" fill="#FFB6C1" opacity="0.6" transform="rotate(45)"/>
      <ellipse cx="0" cy="0" rx="15" ry="5" fill="#FFB6C1" opacity="0.6" transform="rotate(90)"/>
      <ellipse cx="0" cy="0" rx="15" ry="5" fill="#FFB6C1" opacity="0.6" transform="rotate(135)"/>
    </g>
    
    <!-- Sacred Flames -->
    <g opacity="0.3">
      <ellipse cx="100" cy="300" rx="8" ry="20" fill="#FF6B35"/>
      <ellipse cx="700" cy="320" rx="6" ry="15" fill="#FF6B35"/>
      <ellipse cx="120" cy="280" rx="4" ry="12" fill="#FFD700"/>
      <ellipse cx="680" cy="300" rx="5" ry="18" fill="#FFD700"/>
    </g>
  </g>
  
  <!-- Divine Figure Silhouette (Abstract and Respectful) -->
  <g transform="translate(400,200)" opacity="0.15">
    <!-- Head with Crown -->
    <circle cx="0" cy="-50" r="25" fill="#4B0082"/>
    <!-- Crown -->
    <polygon points="-20,-70 0,-85 20,-70 15,-75 5,-75 0,-80 -5,-75 -15,-75" fill="#FFD700"/>
    
    <!-- Body -->
    <ellipse cx="0" cy="20" rx="20" ry="60" fill="#4B0082"/>
    
    <!-- Arms (in blessing pose) -->
    <ellipse cx="-25" cy="0" rx="8" ry="25" fill="#4B0082" transform="rotate(-20)"/>
    <ellipse cx="25" cy="0" rx="8" ry="25" fill="#4B0082" transform="rotate(20)"/>
    
    <!-- Sacred Ornaments -->
    <circle cx="0" cy="-30" r="3" fill="#FFD700"/>
    <circle cx="0" cy="0" r="4" fill="#FFD700"/>
  </g>
  
  <!-- Decorative Border Elements -->
  <g opacity="0.2">
    <!-- Top Border -->
    <rect x="0" y="0" width="800" height="5" fill="url(#templeGradient)"/>
    <!-- Side Borders -->
    <rect x="0" y="0" width="5" height="600" fill="url(#templeGradient)"/>
    <rect x="795" y="0" width="5" height="600" fill="url(#templeGradient)"/>
    <!-- Bottom Border -->
    <rect x="0" y="595" width="800" height="5" fill="url(#templeGradient)"/>
  </g>
  
  <!-- Sacred Geometry (Subtle) -->
  <g opacity="0.1">
    <circle cx="400" cy="300" r="150" fill="none" stroke="#FFD700" stroke-width="1"/>
    <circle cx="400" cy="300" r="100" fill="none" stroke="#FF6B35" stroke-width="0.5"/>
    <circle cx="400" cy="300" r="200" fill="none" stroke="#FFD700" stroke-width="0.5"/>
  </g>
</svg>